<?xml version="1.0" encoding="UTF-8"?>
<svg xmlns="http://www.w3.org/2000/svg" version="1.1" viewBox="0 0 940.9 128.9">
  <defs>
    <style>
      .cls-1 {
        fill: #fff;
      }
    </style>
  </defs>
  <!-- Generator: Adobe Illustrator 28.7.1, SVG Export Plug-In . SVG Version: 1.2.0 Build 142)  -->
  <g>
    <g id="Icon">
      <g>
        <path class="cls-1" d="M173.2,64.4c0,19.5,14.7,36,38.3,36s18-3.5,25.1-8.8l-6.4-11.8c-5.1,3.9-10.7,6.8-18.6,6.8-14.2,0-22.8-9.8-22.8-22.3s8.6-22.3,22.8-22.3,13.5,2.9,18.6,6.8l6.4-11.8c-7.1-5.3-14.2-8.8-25.1-8.8-23.7,0-38.3,16.6-38.3,36h0Z"/>
        <rect class="cls-1" x="245.2" y="27.2" width="14.9" height="72.2"/>
        <path class="cls-1" d="M269.8,73.7c0,16.1,13.3,26.8,28.1,26.8s28.1-10.8,28.1-26.8-13.2-26.7-28.1-26.7-28.1,10.7-28.1,26.7h0ZM284.3,73.7c0-8,6.4-13.9,13.7-13.9s13.7,6,13.7,13.9-6.3,14-13.7,14-13.7-5.9-13.7-14Z"/>
        <path class="cls-1" d="M385.7,48.2h-16.3l-12.6,34.5-12.5-34.5h-16.3l21.5,51.2h14.8l21.4-51.2h0Z"/>
        <path class="cls-1" d="M415.8,59.2c5,0,11.7,2.5,12.7,9.1h-25.6c1.8-6.9,8.2-9.1,13-9.1h0ZM432.3,82.2c-3.6,3.4-8.9,6.1-14.2,6.1-9.5,0-15.4-4.7-15.7-11.1h41.2c0-20.4-13.6-30.2-27.8-30.2s-28.2,11.9-28.2,27,10.4,26.4,29.4,26.4,16.6-2.1,23.9-10.1l-8.6-8.2h0Z"/>
        <path class="cls-1" d="M466.9,48.2h-14.5v51.2h14.9v-27.8c0-6.8,5.6-10.1,11.2-10.1s4.2.2,6.3.7v-14.7c-1.6-.3-2.1-.4-3.8-.4-4.5,0-12.4,3-14.1,12.3v-11.2h0Z"/>
        <path class="cls-1" d="M531.7,87.1V29.5h-15.5v69.9h47.1v-12.3h-31.7Z"/>
        <path class="cls-1" d="M595.2,59.2c5,0,11.7,2.5,12.7,9.1h-25.7c1.8-6.9,8.2-9.1,13-9.1h0ZM611.8,82.2c-3.6,3.4-8.9,6.1-14.2,6.1-9.5,0-15.4-4.7-15.7-11.1h41.2c0-20.4-13.6-30.2-27.8-30.2s-28.2,11.9-28.2,27,10.4,26.4,29.3,26.4,16.6-2.1,23.9-10.1l-8.6-8.2h0Z"/>
        <path class="cls-1" d="M643.8,73.6c0-7.9,4.6-14.5,12.8-14.5s13.8,5.8,13.8,15.3-6.1,14-13.4,14-13.2-6.6-13.2-14.8h0ZM669.9,48.2v7c-3.5-4.7-9.5-8.1-16.4-8.1-16,0-24.7,12.1-24.7,26.5s9.4,26.9,25,26.9,12.4-3.3,16.1-8.6v7.5h14.9v-51.2h-14.9Z"/>
        <path class="cls-1" d="M712,48.2h-14.5v51.2h14.9v-27.8c0-6.8,5.6-10.1,11.2-10.1s4.2.2,6.3.7v-14.7c-1.6-.3-2.1-.4-3.8-.4-4.5,0-12.4,3-14.1,12.3v-11.2h0Z"/>
        <path class="cls-1" d="M737.6,99.4h14.9v-27.4c0-7.1,2.9-12.6,9.8-12.6s9.5,5.4,9.5,12.5v27.6h14.9v-27.8c0-13-3.9-24.5-18.3-24.5s-11.6,2.1-15.9,8.1v-7h-14.9v51.2h0Z"/>
        <path class="cls-1" d="M813.9,99.4v-51.2h-14.9v51.2h14.9ZM797.2,34.6c0,4.9,4,8.3,9.4,8.3s9.5-3.4,9.5-8.3-4.2-8.5-9.5-8.5-9.4,3.5-9.4,8.5Z"/>
        <path class="cls-1" d="M826.8,99.4h14.9v-27.4c0-7.1,2.9-12.6,9.8-12.6s9.5,5.4,9.5,12.5v27.6h14.9v-27.8c0-13-3.9-24.5-18.3-24.5s-11.6,2.1-15.9,8.1v-7h-14.9v51.2h0Z"/>
        <path class="cls-1" d="M899.9,73.6c0-7.9,4.6-14.5,12.8-14.5s13.8,5.8,13.8,15.3-6.1,14-13.4,14-13.2-6.6-13.2-14.8h0ZM940.9,48.2h-14.9v7c-3.5-4.7-9.5-8.1-16.4-8.1-16,0-24.7,12.1-24.7,26.5s9.4,26.9,25,26.9,12.4-3.3,16.1-8.6v5.6c0,11.2-8.2,13.5-15.9,13.5s-12.4-3.2-15.4-5.8l-5.9,11.6c5.2,4.2,12.9,7.1,24.3,7.1s27.8-7.9,27.8-28.1v-47.6h0Z"/>
      </g>
      <g>
        <path class="cls-1" d="M93.1,57.2h-13.8c-4,0-7.2,3.2-7.2,7.2s3.2,7.2,7.2,7.2h13.8c11.8,0,21.4,9.6,21.4,21.4s-9.6,21.4-21.4,21.4-14.6-4.2-18.3-10.4c-1.5,5.2-4,10-7.2,14.1,6.5,6.6,15.6,10.7,25.6,10.7,19.8,0,35.8-16.1,35.8-35.8s-16.1-35.8-35.8-35.8Z"/>
        <path class="cls-1" d="M35.8,0C16.1,0,0,16.1,0,35.8s16.1,35.8,35.8,35.8h13.9c4,0,7.2-3.2,7.2-7.2s-3.2-7.2-7.2-7.2h-13.8c-11.8,0-21.4-9.6-21.4-21.4s9.6-21.4,21.4-21.4,14.6,4.2,18.3,10.4c1.5-5.2,4-10,7.2-14.1C54.9,4.1,45.8,0,35.8,0Z"/>
        <path class="cls-1" d="M128.9,35.8C128.9,16.1,112.8,0,93.1,0s-35.8,16.1-35.8,35.8v13.9c0,4,3.2,7.2,7.2,7.2s7.2-3.2,7.2-7.2v-13.8c0-11.8,9.6-21.4,21.4-21.4s21.4,9.6,21.4,21.4-4.2,14.6-10.4,18.3c5.2,1.5,10,4,14.1,7.2,6.6-6.5,10.8-15.6,10.8-25.6Z"/>
        <path class="cls-1" d="M0,93.1c0,19.8,16.1,35.8,35.8,35.8s35.8-16.1,35.8-35.8v-13.8c0-4-3.2-7.2-7.2-7.2s-7.2,3.2-7.2,7.2v13.8c0,11.8-9.6,21.4-21.4,21.4s-21.4-9.6-21.4-21.4,4.2-14.6,10.4-18.3c-5.2-1.5-10-4-14.1-7.2C4.1,74,0,83.1,0,93.1Z"/>
      </g>
    </g>
  </g>
</svg>